<svg xmlns="http://www.w3.org/2000/svg" xmlns:xlink="http://www.w3.org/1999/xlink" viewBox="0,0,256,256" width="50px" height="50px" fill-rule="nonzero"><g fill="#36fbb1" fill-rule="nonzero" stroke="none" stroke-width="1" stroke-linecap="butt" stroke-linejoin="miter" stroke-miterlimit="10" stroke-dasharray="" stroke-dashoffset="0" font-family="none" font-weight="none" font-size="none" text-anchor="none" style="mix-blend-mode: normal"><g transform="scale(5.12,5.12)"><path d="M33.58594,4l-3,3h-14l-2,2l1,1l-1,1l1.12891,1.125l-1.25,1.875h-2.05078l-0.41406,-0.41406v-5.58594h-5v10.61719l2,1v9.96875l-1,1v8l-1.41406,1.41406h-4.58594v5h17v-3h2v2h15.41406l4,-4h5l1.58594,-1.58594v-9.82812l-3.58594,-3.58594h2l1.58594,-1.58594v-16.64844l-1.38281,-2.76562zM34.41406,6h9.96875l0.61719,1.23438v15.35156l-0.41406,0.41406h-8.58594v-4h3v-3h-6v7h-5v-4h3v-3h-6v7h-5v-4h3v-3h-6v7h-1.58594l-2,-2h-2.41406v-2.61719l-2,-1v-7.38281h1v4.41406l1.58594,1.58594h3.94922l2.75,-4.125l-0.87109,-0.875l1,-1l-1,-1h14zM11,23h1.58594l2,2h2.41406v11h6v-3h-3v-8h5v11h6v-3h-3v-8h5v11h6v-3h-3v-8h4.58594l4.41406,4.41406v8.17188l-0.41406,0.41406h-5l-4,4h-12.58594v-2h-6v3h-13v-1h3.41406l2.58594,-2.58594v-8l1,-1z"></path></g></g></svg>